G04 #@! TF.GenerationSoftware,KiCad,Pcbnew,(5.1.5)-3*
G04 #@! TF.CreationDate,2020-06-10T08:40:25+02:00*
G04 #@! TF.ProjectId,BOTLAND-2-KONTROLA-DOSTEPU,424f544c-414e-4442-9d32-2d4b4f4e5452,rev?*
G04 #@! TF.SameCoordinates,Original*
G04 #@! TF.FileFunction,Soldermask,Bot*
G04 #@! TF.FilePolarity,Negative*
%FSLAX46Y46*%
G04 Gerber Fmt 4.6, Leading zero omitted, Abs format (unit mm)*
G04 Created by KiCad (PCBNEW (5.1.5)-3) date 2020-06-10 08:40:25*
%MOMM*%
%LPD*%
G04 APERTURE LIST*
%ADD10C,0.150000*%
%ADD11C,0.100000*%
G04 APERTURE END LIST*
D10*
X22860000Y-95250000D02*
X22860000Y-156210000D01*
X24130000Y-95250000D02*
X22860000Y-95250000D01*
X114300000Y-95250000D02*
X24130000Y-95250000D01*
X114300000Y-156210000D02*
X114300000Y-95250000D01*
X22860000Y-156210000D02*
X114300000Y-156210000D01*
D11*
G36*
X37881000Y-152133500D02*
G01*
X35779000Y-152133500D01*
X35779000Y-150126500D01*
X37881000Y-150126500D01*
X37881000Y-152133500D01*
G37*
G36*
X29353560Y-151908560D02*
G01*
X26851560Y-151908560D01*
X26851560Y-149406560D01*
X29353560Y-149406560D01*
X29353560Y-151908560D01*
G37*
G36*
X36975936Y-147591340D02*
G01*
X37074220Y-147601020D01*
X37263381Y-147658401D01*
X37437712Y-147751583D01*
X37590515Y-147876985D01*
X37715917Y-148029788D01*
X37809099Y-148204119D01*
X37866480Y-148393280D01*
X37885855Y-148590000D01*
X37866480Y-148786720D01*
X37809099Y-148975881D01*
X37715917Y-149150212D01*
X37590515Y-149303015D01*
X37437712Y-149428417D01*
X37263381Y-149521599D01*
X37074220Y-149578980D01*
X36975936Y-149588660D01*
X36926795Y-149593500D01*
X36733205Y-149593500D01*
X36684064Y-149588660D01*
X36585780Y-149578980D01*
X36396619Y-149521599D01*
X36222288Y-149428417D01*
X36069485Y-149303015D01*
X35944083Y-149150212D01*
X35850901Y-148975881D01*
X35793520Y-148786720D01*
X35774145Y-148590000D01*
X35793520Y-148393280D01*
X35850901Y-148204119D01*
X35944083Y-148029788D01*
X36069485Y-147876985D01*
X36222288Y-147751583D01*
X36396619Y-147658401D01*
X36585780Y-147601020D01*
X36684064Y-147591340D01*
X36733205Y-147586500D01*
X36926795Y-147586500D01*
X36975936Y-147591340D01*
G37*
G36*
X28467463Y-145954635D02*
G01*
X28695131Y-146048938D01*
X28900026Y-146185845D01*
X29074275Y-146360094D01*
X29211182Y-146564989D01*
X29305485Y-146792657D01*
X29353560Y-147034347D01*
X29353560Y-147280773D01*
X29305485Y-147522463D01*
X29211182Y-147750131D01*
X29074275Y-147955026D01*
X28900026Y-148129275D01*
X28695131Y-148266182D01*
X28695130Y-148266183D01*
X28695129Y-148266183D01*
X28467463Y-148360485D01*
X28225774Y-148408560D01*
X27979346Y-148408560D01*
X27737657Y-148360485D01*
X27509991Y-148266183D01*
X27509990Y-148266183D01*
X27509989Y-148266182D01*
X27305094Y-148129275D01*
X27130845Y-147955026D01*
X26993938Y-147750131D01*
X26899635Y-147522463D01*
X26851560Y-147280773D01*
X26851560Y-147034347D01*
X26899635Y-146792657D01*
X26993938Y-146564989D01*
X27130845Y-146360094D01*
X27305094Y-146185845D01*
X27509989Y-146048938D01*
X27737657Y-145954635D01*
X27979346Y-145906560D01*
X28225774Y-145906560D01*
X28467463Y-145954635D01*
G37*
G36*
X36975936Y-145051340D02*
G01*
X37074220Y-145061020D01*
X37263381Y-145118401D01*
X37437712Y-145211583D01*
X37590515Y-145336985D01*
X37715917Y-145489788D01*
X37809099Y-145664119D01*
X37866480Y-145853280D01*
X37885855Y-146050000D01*
X37866480Y-146246720D01*
X37809099Y-146435881D01*
X37715917Y-146610212D01*
X37590515Y-146763015D01*
X37437712Y-146888417D01*
X37263381Y-146981599D01*
X37074220Y-147038980D01*
X36975936Y-147048660D01*
X36926795Y-147053500D01*
X36733205Y-147053500D01*
X36684064Y-147048660D01*
X36585780Y-147038980D01*
X36396619Y-146981599D01*
X36222288Y-146888417D01*
X36069485Y-146763015D01*
X35944083Y-146610212D01*
X35850901Y-146435881D01*
X35793520Y-146246720D01*
X35774145Y-146050000D01*
X35793520Y-145853280D01*
X35850901Y-145664119D01*
X35944083Y-145489788D01*
X36069485Y-145336985D01*
X36222288Y-145211583D01*
X36396619Y-145118401D01*
X36585780Y-145061020D01*
X36684064Y-145051340D01*
X36733205Y-145046500D01*
X36926795Y-145046500D01*
X36975936Y-145051340D01*
G37*
G36*
X37161665Y-135786642D02*
G01*
X37311490Y-135816444D01*
X37593754Y-135933361D01*
X37847785Y-136103099D01*
X38063821Y-136319135D01*
X38233559Y-136573166D01*
X38350476Y-136855430D01*
X38410080Y-137155080D01*
X38410080Y-137460600D01*
X38350476Y-137760250D01*
X38233559Y-138042514D01*
X38063821Y-138296545D01*
X37847785Y-138512581D01*
X37593754Y-138682319D01*
X37311490Y-138799236D01*
X37161665Y-138829038D01*
X37011841Y-138858840D01*
X36706319Y-138858840D01*
X36556495Y-138829038D01*
X36406670Y-138799236D01*
X36124406Y-138682319D01*
X35870375Y-138512581D01*
X35654339Y-138296545D01*
X35484601Y-138042514D01*
X35367684Y-137760250D01*
X35308080Y-137460600D01*
X35308080Y-137155080D01*
X35367684Y-136855430D01*
X35484601Y-136573166D01*
X35654339Y-136319135D01*
X35870375Y-136103099D01*
X36124406Y-135933361D01*
X36406670Y-135816444D01*
X36556495Y-135786642D01*
X36706319Y-135756840D01*
X37011841Y-135756840D01*
X37161665Y-135786642D01*
G37*
G36*
X49361665Y-135786642D02*
G01*
X49511490Y-135816444D01*
X49793754Y-135933361D01*
X50047785Y-136103099D01*
X50263821Y-136319135D01*
X50433559Y-136573166D01*
X50550476Y-136855430D01*
X50610080Y-137155080D01*
X50610080Y-137460600D01*
X50550476Y-137760250D01*
X50433559Y-138042514D01*
X50263821Y-138296545D01*
X50047785Y-138512581D01*
X49793754Y-138682319D01*
X49511490Y-138799236D01*
X49361665Y-138829038D01*
X49211841Y-138858840D01*
X48906319Y-138858840D01*
X48756495Y-138829038D01*
X48606670Y-138799236D01*
X48324406Y-138682319D01*
X48070375Y-138512581D01*
X47854339Y-138296545D01*
X47684601Y-138042514D01*
X47567684Y-137760250D01*
X47508080Y-137460600D01*
X47508080Y-137155080D01*
X47567684Y-136855430D01*
X47684601Y-136573166D01*
X47854339Y-136319135D01*
X48070375Y-136103099D01*
X48324406Y-135933361D01*
X48606670Y-135816444D01*
X48756495Y-135786642D01*
X48906319Y-135756840D01*
X49211841Y-135756840D01*
X49361665Y-135786642D01*
G37*
G36*
X64128040Y-137518800D02*
G01*
X61226040Y-137518800D01*
X61226040Y-134616800D01*
X64128040Y-134616800D01*
X64128040Y-137518800D01*
G37*
G36*
X29353560Y-134128560D02*
G01*
X26851560Y-134128560D01*
X26851560Y-131626560D01*
X29353560Y-131626560D01*
X29353560Y-134128560D01*
G37*
G36*
X57388068Y-132155783D02*
G01*
X57542940Y-132219933D01*
X57682321Y-132313065D01*
X57800855Y-132431599D01*
X57893987Y-132570980D01*
X57958137Y-132725852D01*
X57990840Y-132890264D01*
X57990840Y-133057896D01*
X57958137Y-133222308D01*
X57893987Y-133377180D01*
X57800855Y-133516561D01*
X57682321Y-133635095D01*
X57542940Y-133728227D01*
X57388068Y-133792377D01*
X57223656Y-133825080D01*
X57056024Y-133825080D01*
X56891612Y-133792377D01*
X56736740Y-133728227D01*
X56597359Y-133635095D01*
X56478825Y-133516561D01*
X56385693Y-133377180D01*
X56321543Y-133222308D01*
X56288840Y-133057896D01*
X56288840Y-132890264D01*
X56321543Y-132725852D01*
X56385693Y-132570980D01*
X56478825Y-132431599D01*
X56597359Y-132313065D01*
X56736740Y-132219933D01*
X56891612Y-132155783D01*
X57056024Y-132123080D01*
X57223656Y-132123080D01*
X57388068Y-132155783D01*
G37*
G36*
X51337343Y-129781804D02*
G01*
X51511490Y-129816444D01*
X51793754Y-129933361D01*
X52047785Y-130103099D01*
X52263821Y-130319135D01*
X52433559Y-130573166D01*
X52550476Y-130855430D01*
X52610080Y-131155080D01*
X52610080Y-131460600D01*
X52550476Y-131760250D01*
X52433559Y-132042514D01*
X52263821Y-132296545D01*
X52047785Y-132512581D01*
X51793754Y-132682319D01*
X51511490Y-132799236D01*
X51361665Y-132829038D01*
X51211841Y-132858840D01*
X50906319Y-132858840D01*
X50756495Y-132829038D01*
X50606670Y-132799236D01*
X50324406Y-132682319D01*
X50070375Y-132512581D01*
X49854339Y-132296545D01*
X49684601Y-132042514D01*
X49567684Y-131760250D01*
X49508080Y-131460600D01*
X49508080Y-131155080D01*
X49567684Y-130855430D01*
X49684601Y-130573166D01*
X49854339Y-130319135D01*
X50070375Y-130103099D01*
X50324406Y-129933361D01*
X50606670Y-129816444D01*
X50780817Y-129781804D01*
X50906319Y-129756840D01*
X51211841Y-129756840D01*
X51337343Y-129781804D01*
G37*
G36*
X72328653Y-128516806D02*
G01*
X72370846Y-128529605D01*
X72409724Y-128550386D01*
X72443805Y-128578355D01*
X72471774Y-128612436D01*
X72492555Y-128651314D01*
X72505354Y-128693507D01*
X72510280Y-128743521D01*
X72510280Y-129432239D01*
X72505354Y-129482253D01*
X72492555Y-129524446D01*
X72471774Y-129563324D01*
X72443805Y-129597405D01*
X72408651Y-129626255D01*
X72391324Y-129643582D01*
X72377711Y-129663956D01*
X72368333Y-129686595D01*
X72363553Y-129710628D01*
X72363553Y-129735133D01*
X72368334Y-129759166D01*
X72377711Y-129781805D01*
X72391325Y-129802179D01*
X72408651Y-129819505D01*
X72443805Y-129848355D01*
X72471774Y-129882436D01*
X72492555Y-129921314D01*
X72505354Y-129963507D01*
X72510280Y-130013521D01*
X72510280Y-130702239D01*
X72505354Y-130752253D01*
X72492555Y-130794446D01*
X72471774Y-130833324D01*
X72460073Y-130847582D01*
X72446459Y-130867956D01*
X72437082Y-130890595D01*
X72432301Y-130914628D01*
X72432301Y-130939132D01*
X72437081Y-130963166D01*
X72446458Y-130985805D01*
X72460072Y-131006179D01*
X72477399Y-131023506D01*
X72497773Y-131037120D01*
X72510280Y-131042300D01*
X72510280Y-132203880D01*
X70908280Y-132203880D01*
X70908280Y-131042795D01*
X70909697Y-131042365D01*
X70931308Y-131030814D01*
X70950250Y-131015269D01*
X70965795Y-130996327D01*
X70977346Y-130974716D01*
X70984459Y-130951267D01*
X70986861Y-130926881D01*
X70984459Y-130902495D01*
X70977346Y-130879046D01*
X70965795Y-130857435D01*
X70958487Y-130847582D01*
X70946786Y-130833324D01*
X70926005Y-130794446D01*
X70913206Y-130752253D01*
X70908280Y-130702239D01*
X70908280Y-130013521D01*
X70913206Y-129963507D01*
X70926005Y-129921314D01*
X70946786Y-129882436D01*
X70974755Y-129848355D01*
X71009909Y-129819505D01*
X71027236Y-129802178D01*
X71040849Y-129781804D01*
X71050227Y-129759165D01*
X71055007Y-129735132D01*
X71055007Y-129710627D01*
X71050226Y-129686594D01*
X71040849Y-129663955D01*
X71027235Y-129643581D01*
X71009909Y-129626255D01*
X70974755Y-129597405D01*
X70946786Y-129563324D01*
X70926005Y-129524446D01*
X70913206Y-129482253D01*
X70908280Y-129432239D01*
X70908280Y-128743521D01*
X70913206Y-128693507D01*
X70926005Y-128651314D01*
X70946786Y-128612436D01*
X70974755Y-128578355D01*
X71008836Y-128550386D01*
X71047714Y-128529605D01*
X71089907Y-128516806D01*
X71139921Y-128511880D01*
X72278639Y-128511880D01*
X72328653Y-128516806D01*
G37*
G36*
X84333699Y-129600180D02*
G01*
X84438481Y-129643582D01*
X84470372Y-129656792D01*
X84593375Y-129738980D01*
X84697980Y-129843585D01*
X84780168Y-129966588D01*
X84836780Y-130103261D01*
X84865640Y-130248353D01*
X84865640Y-130396287D01*
X84836780Y-130541379D01*
X84780168Y-130678052D01*
X84697980Y-130801055D01*
X84593375Y-130905660D01*
X84470372Y-130987848D01*
X84470371Y-130987849D01*
X84470370Y-130987849D01*
X84333699Y-131044460D01*
X84188608Y-131073320D01*
X84040672Y-131073320D01*
X83895581Y-131044460D01*
X83758910Y-130987849D01*
X83758909Y-130987849D01*
X83758908Y-130987848D01*
X83635905Y-130905660D01*
X83531300Y-130801055D01*
X83449112Y-130678052D01*
X83392500Y-130541379D01*
X83363640Y-130396287D01*
X83363640Y-130248353D01*
X83392500Y-130103261D01*
X83449112Y-129966588D01*
X83531300Y-129843585D01*
X83635905Y-129738980D01*
X83758908Y-129656792D01*
X83790800Y-129643582D01*
X83895581Y-129600180D01*
X84040672Y-129571320D01*
X84188608Y-129571320D01*
X84333699Y-129600180D01*
G37*
G36*
X76713699Y-129600180D02*
G01*
X76818481Y-129643582D01*
X76850372Y-129656792D01*
X76973375Y-129738980D01*
X77077980Y-129843585D01*
X77160168Y-129966588D01*
X77216780Y-130103261D01*
X77245640Y-130248353D01*
X77245640Y-130396287D01*
X77216780Y-130541379D01*
X77160168Y-130678052D01*
X77077980Y-130801055D01*
X76973375Y-130905660D01*
X76850372Y-130987848D01*
X76850371Y-130987849D01*
X76850370Y-130987849D01*
X76713699Y-131044460D01*
X76568608Y-131073320D01*
X76420672Y-131073320D01*
X76275581Y-131044460D01*
X76138910Y-130987849D01*
X76138909Y-130987849D01*
X76138908Y-130987848D01*
X76015905Y-130905660D01*
X75911300Y-130801055D01*
X75829112Y-130678052D01*
X75772500Y-130541379D01*
X75743640Y-130396287D01*
X75743640Y-130248353D01*
X75772500Y-130103261D01*
X75829112Y-129966588D01*
X75911300Y-129843585D01*
X76015905Y-129738980D01*
X76138908Y-129656792D01*
X76170800Y-129643582D01*
X76275581Y-129600180D01*
X76420672Y-129571320D01*
X76568608Y-129571320D01*
X76713699Y-129600180D01*
G37*
G36*
X28467463Y-128174635D02*
G01*
X28582559Y-128222309D01*
X28695131Y-128268938D01*
X28900026Y-128405845D01*
X29074275Y-128580094D01*
X29173255Y-128728228D01*
X29211183Y-128784991D01*
X29305485Y-129012657D01*
X29353560Y-129254346D01*
X29353560Y-129500774D01*
X29305485Y-129742463D01*
X29236141Y-129909876D01*
X29211182Y-129970131D01*
X29074275Y-130175026D01*
X28900026Y-130349275D01*
X28695131Y-130486182D01*
X28695130Y-130486183D01*
X28695129Y-130486183D01*
X28467463Y-130580485D01*
X28225774Y-130628560D01*
X27979346Y-130628560D01*
X27737657Y-130580485D01*
X27509991Y-130486183D01*
X27509990Y-130486183D01*
X27509989Y-130486182D01*
X27305094Y-130349275D01*
X27130845Y-130175026D01*
X26993938Y-129970131D01*
X26968980Y-129909876D01*
X26899635Y-129742463D01*
X26851560Y-129500774D01*
X26851560Y-129254346D01*
X26899635Y-129012657D01*
X26993937Y-128784991D01*
X27031865Y-128728228D01*
X27130845Y-128580094D01*
X27305094Y-128405845D01*
X27509989Y-128268938D01*
X27622562Y-128222309D01*
X27737657Y-128174635D01*
X27979346Y-128126560D01*
X28225774Y-128126560D01*
X28467463Y-128174635D01*
G37*
G36*
X57388068Y-127155783D02*
G01*
X57542940Y-127219933D01*
X57682321Y-127313065D01*
X57800855Y-127431599D01*
X57893987Y-127570980D01*
X57958137Y-127725852D01*
X57990840Y-127890264D01*
X57990840Y-128057896D01*
X57958137Y-128222308D01*
X57893987Y-128377180D01*
X57800855Y-128516561D01*
X57682321Y-128635095D01*
X57542940Y-128728227D01*
X57388068Y-128792377D01*
X57223656Y-128825080D01*
X57056024Y-128825080D01*
X56891612Y-128792377D01*
X56736740Y-128728227D01*
X56597359Y-128635095D01*
X56478825Y-128516561D01*
X56385693Y-128377180D01*
X56321543Y-128222308D01*
X56288840Y-128057896D01*
X56288840Y-127890264D01*
X56321543Y-127725852D01*
X56385693Y-127570980D01*
X56478825Y-127431599D01*
X56597359Y-127313065D01*
X56736740Y-127219933D01*
X56891612Y-127155783D01*
X57056024Y-127123080D01*
X57223656Y-127123080D01*
X57388068Y-127155783D01*
G37*
G36*
X63100281Y-124512560D02*
G01*
X63364345Y-124621939D01*
X63601998Y-124780734D01*
X63804106Y-124982842D01*
X63962901Y-125220495D01*
X64072280Y-125484559D01*
X64128040Y-125764888D01*
X64128040Y-126050712D01*
X64072280Y-126331041D01*
X63962901Y-126595105D01*
X63804106Y-126832758D01*
X63601998Y-127034866D01*
X63364345Y-127193661D01*
X63100281Y-127303040D01*
X62819952Y-127358800D01*
X62534128Y-127358800D01*
X62253799Y-127303040D01*
X61989735Y-127193661D01*
X61752082Y-127034866D01*
X61549974Y-126832758D01*
X61391179Y-126595105D01*
X61281800Y-126331041D01*
X61226040Y-126050712D01*
X61226040Y-125764888D01*
X61281800Y-125484559D01*
X61391179Y-125220495D01*
X61549974Y-124982842D01*
X61752082Y-124780734D01*
X61989735Y-124621939D01*
X62253799Y-124512560D01*
X62534128Y-124456800D01*
X62819952Y-124456800D01*
X63100281Y-124512560D01*
G37*
G36*
X49361665Y-123786642D02*
G01*
X49511490Y-123816444D01*
X49793754Y-123933361D01*
X50047785Y-124103099D01*
X50263821Y-124319135D01*
X50433559Y-124573166D01*
X50550476Y-124855430D01*
X50610080Y-125155080D01*
X50610080Y-125460600D01*
X50550476Y-125760250D01*
X50433559Y-126042514D01*
X50263821Y-126296545D01*
X50047785Y-126512581D01*
X49793754Y-126682319D01*
X49511490Y-126799236D01*
X49361665Y-126829038D01*
X49211841Y-126858840D01*
X48906319Y-126858840D01*
X48756495Y-126829038D01*
X48606670Y-126799236D01*
X48324406Y-126682319D01*
X48070375Y-126512581D01*
X47854339Y-126296545D01*
X47684601Y-126042514D01*
X47567684Y-125760250D01*
X47508080Y-125460600D01*
X47508080Y-125155080D01*
X47567684Y-124855430D01*
X47684601Y-124573166D01*
X47854339Y-124319135D01*
X48070375Y-124103099D01*
X48324406Y-123933361D01*
X48606670Y-123816444D01*
X48756495Y-123786642D01*
X48906319Y-123756840D01*
X49211841Y-123756840D01*
X49361665Y-123786642D01*
G37*
G36*
X37161665Y-123786642D02*
G01*
X37311490Y-123816444D01*
X37593754Y-123933361D01*
X37847785Y-124103099D01*
X38063821Y-124319135D01*
X38233559Y-124573166D01*
X38350476Y-124855430D01*
X38410080Y-125155080D01*
X38410080Y-125460600D01*
X38350476Y-125760250D01*
X38233559Y-126042514D01*
X38063821Y-126296545D01*
X37847785Y-126512581D01*
X37593754Y-126682319D01*
X37311490Y-126799236D01*
X37161665Y-126829038D01*
X37011841Y-126858840D01*
X36706319Y-126858840D01*
X36556495Y-126829038D01*
X36406670Y-126799236D01*
X36124406Y-126682319D01*
X35870375Y-126512581D01*
X35654339Y-126296545D01*
X35484601Y-126042514D01*
X35367684Y-125760250D01*
X35308080Y-125460600D01*
X35308080Y-125155080D01*
X35367684Y-124855430D01*
X35484601Y-124573166D01*
X35654339Y-124319135D01*
X35870375Y-124103099D01*
X36124406Y-123933361D01*
X36406670Y-123816444D01*
X36556495Y-123786642D01*
X36706319Y-123756840D01*
X37011841Y-123756840D01*
X37161665Y-123786642D01*
G37*
G36*
X75044875Y-120977479D02*
G01*
X75118516Y-120999818D01*
X75155337Y-121010987D01*
X75257139Y-121065402D01*
X75314227Y-121112253D01*
X75346369Y-121138631D01*
X75419598Y-121227861D01*
X75419599Y-121227863D01*
X75474013Y-121329662D01*
X75474524Y-121331347D01*
X75507521Y-121440124D01*
X75516000Y-121526215D01*
X75516000Y-122313785D01*
X75507521Y-122399876D01*
X75485182Y-122473517D01*
X75474013Y-122510338D01*
X75419598Y-122612140D01*
X75346370Y-122701370D01*
X75257140Y-122774598D01*
X75155338Y-122829013D01*
X75118517Y-122840182D01*
X75044876Y-122862521D01*
X74930000Y-122873835D01*
X74815125Y-122862521D01*
X74741484Y-122840182D01*
X74704663Y-122829013D01*
X74602861Y-122774598D01*
X74513631Y-122701370D01*
X74440403Y-122612140D01*
X74405239Y-122546354D01*
X74391625Y-122525979D01*
X74374298Y-122508653D01*
X74353923Y-122495039D01*
X74331284Y-122485662D01*
X74307251Y-122480882D01*
X74282747Y-122480882D01*
X74258713Y-122485663D01*
X74236075Y-122495040D01*
X74215700Y-122508654D01*
X74198374Y-122525981D01*
X74184761Y-122546355D01*
X74149599Y-122612138D01*
X74076370Y-122701370D01*
X73987140Y-122774598D01*
X73885338Y-122829013D01*
X73848517Y-122840182D01*
X73774876Y-122862521D01*
X73660000Y-122873835D01*
X73545125Y-122862521D01*
X73471484Y-122840182D01*
X73434663Y-122829013D01*
X73332861Y-122774598D01*
X73243631Y-122701370D01*
X73170403Y-122612140D01*
X73135239Y-122546354D01*
X73121625Y-122525979D01*
X73104298Y-122508653D01*
X73083923Y-122495039D01*
X73061284Y-122485662D01*
X73037251Y-122480882D01*
X73012747Y-122480882D01*
X72988713Y-122485663D01*
X72966075Y-122495040D01*
X72945700Y-122508654D01*
X72928374Y-122525981D01*
X72914761Y-122546355D01*
X72879599Y-122612138D01*
X72806370Y-122701370D01*
X72717140Y-122774598D01*
X72615338Y-122829013D01*
X72578517Y-122840182D01*
X72504876Y-122862521D01*
X72390000Y-122873835D01*
X72275125Y-122862521D01*
X72201484Y-122840182D01*
X72164663Y-122829013D01*
X72062861Y-122774598D01*
X71973631Y-122701370D01*
X71927625Y-122645310D01*
X71910298Y-122627983D01*
X71889924Y-122614369D01*
X71867285Y-122604992D01*
X71843252Y-122600211D01*
X71818748Y-122600211D01*
X71794714Y-122604991D01*
X71772076Y-122614368D01*
X71751701Y-122627982D01*
X71734374Y-122645309D01*
X71720760Y-122665683D01*
X71711383Y-122688322D01*
X71706602Y-122712355D01*
X71706000Y-122724608D01*
X71706000Y-122871000D01*
X70534000Y-122871000D01*
X70534000Y-120969000D01*
X71706000Y-120969000D01*
X71706000Y-121115392D01*
X71708402Y-121139778D01*
X71715515Y-121163227D01*
X71727066Y-121184838D01*
X71742611Y-121203780D01*
X71761553Y-121219325D01*
X71783164Y-121230876D01*
X71806613Y-121237989D01*
X71830999Y-121240391D01*
X71855385Y-121237989D01*
X71878834Y-121230876D01*
X71900445Y-121219325D01*
X71919387Y-121203780D01*
X71927625Y-121194690D01*
X71973629Y-121138634D01*
X71973631Y-121138631D01*
X72062861Y-121065402D01*
X72074507Y-121059177D01*
X72164662Y-121010987D01*
X72201483Y-120999818D01*
X72275124Y-120977479D01*
X72390000Y-120966165D01*
X72504875Y-120977479D01*
X72578516Y-120999818D01*
X72615337Y-121010987D01*
X72717139Y-121065402D01*
X72774227Y-121112253D01*
X72806369Y-121138631D01*
X72879598Y-121227861D01*
X72879601Y-121227865D01*
X72914761Y-121293645D01*
X72928374Y-121314020D01*
X72945701Y-121331347D01*
X72966076Y-121344960D01*
X72988715Y-121354338D01*
X73012748Y-121359118D01*
X73037252Y-121359118D01*
X73061285Y-121354338D01*
X73083924Y-121344960D01*
X73104299Y-121331347D01*
X73121626Y-121314020D01*
X73135239Y-121293646D01*
X73170402Y-121227861D01*
X73243629Y-121138634D01*
X73243631Y-121138631D01*
X73332861Y-121065402D01*
X73344507Y-121059177D01*
X73434662Y-121010987D01*
X73471483Y-120999818D01*
X73545124Y-120977479D01*
X73660000Y-120966165D01*
X73774875Y-120977479D01*
X73848516Y-120999818D01*
X73885337Y-121010987D01*
X73987139Y-121065402D01*
X74044227Y-121112253D01*
X74076369Y-121138631D01*
X74149598Y-121227861D01*
X74149601Y-121227865D01*
X74184761Y-121293645D01*
X74198374Y-121314020D01*
X74215701Y-121331347D01*
X74236076Y-121344960D01*
X74258715Y-121354338D01*
X74282748Y-121359118D01*
X74307252Y-121359118D01*
X74331285Y-121354338D01*
X74353924Y-121344960D01*
X74374299Y-121331347D01*
X74391626Y-121314020D01*
X74405239Y-121293646D01*
X74440402Y-121227861D01*
X74513629Y-121138634D01*
X74513631Y-121138631D01*
X74602861Y-121065402D01*
X74614507Y-121059177D01*
X74704662Y-121010987D01*
X74741483Y-120999818D01*
X74815124Y-120977479D01*
X74930000Y-120966165D01*
X75044875Y-120977479D01*
G37*
G36*
X34447135Y-116970778D02*
G01*
X34598232Y-117016613D01*
X34737483Y-117091044D01*
X34859538Y-117191212D01*
X34959706Y-117313267D01*
X35034137Y-117452518D01*
X35079972Y-117603615D01*
X35091570Y-117721375D01*
X35091570Y-118498625D01*
X35079972Y-118616385D01*
X35034137Y-118767482D01*
X34959706Y-118906733D01*
X34859538Y-119028788D01*
X34737482Y-119128956D01*
X34598231Y-119203387D01*
X34447134Y-119249222D01*
X34290000Y-119264698D01*
X34132865Y-119249222D01*
X33981768Y-119203387D01*
X33842517Y-119128956D01*
X33720462Y-119028788D01*
X33620294Y-118906732D01*
X33545863Y-118767481D01*
X33500028Y-118616384D01*
X33488430Y-118498624D01*
X33488430Y-117721375D01*
X33500028Y-117603615D01*
X33500028Y-117603614D01*
X33545863Y-117452519D01*
X33620293Y-117313271D01*
X33620295Y-117313267D01*
X33720463Y-117191212D01*
X33842518Y-117091044D01*
X33981769Y-117016613D01*
X34132866Y-116970778D01*
X34290000Y-116955302D01*
X34447135Y-116970778D01*
G37*
G36*
X36987135Y-116970778D02*
G01*
X37138232Y-117016613D01*
X37277483Y-117091044D01*
X37399538Y-117191212D01*
X37499706Y-117313267D01*
X37574137Y-117452518D01*
X37619972Y-117603615D01*
X37631570Y-117721375D01*
X37631570Y-118498625D01*
X37619972Y-118616385D01*
X37574137Y-118767482D01*
X37499706Y-118906733D01*
X37399538Y-119028788D01*
X37277482Y-119128956D01*
X37138231Y-119203387D01*
X36987134Y-119249222D01*
X36830000Y-119264698D01*
X36672865Y-119249222D01*
X36521768Y-119203387D01*
X36382517Y-119128956D01*
X36260462Y-119028788D01*
X36160294Y-118906732D01*
X36085863Y-118767481D01*
X36040028Y-118616384D01*
X36028430Y-118498624D01*
X36028430Y-117721375D01*
X36040028Y-117603615D01*
X36040028Y-117603614D01*
X36085863Y-117452519D01*
X36160293Y-117313271D01*
X36160295Y-117313267D01*
X36260463Y-117191212D01*
X36382518Y-117091044D01*
X36521769Y-117016613D01*
X36672866Y-116970778D01*
X36830000Y-116955302D01*
X36987135Y-116970778D01*
G37*
G36*
X39527135Y-116970778D02*
G01*
X39678232Y-117016613D01*
X39817483Y-117091044D01*
X39939538Y-117191212D01*
X40039706Y-117313267D01*
X40114137Y-117452518D01*
X40159972Y-117603615D01*
X40171570Y-117721375D01*
X40171570Y-118498625D01*
X40159972Y-118616385D01*
X40114137Y-118767482D01*
X40039706Y-118906733D01*
X39939538Y-119028788D01*
X39817482Y-119128956D01*
X39678231Y-119203387D01*
X39527134Y-119249222D01*
X39370000Y-119264698D01*
X39212865Y-119249222D01*
X39061768Y-119203387D01*
X38922517Y-119128956D01*
X38800462Y-119028788D01*
X38700294Y-118906732D01*
X38625863Y-118767481D01*
X38580028Y-118616384D01*
X38568430Y-118498624D01*
X38568430Y-117721375D01*
X38580028Y-117603615D01*
X38580028Y-117603614D01*
X38625863Y-117452519D01*
X38700293Y-117313271D01*
X38700295Y-117313267D01*
X38800463Y-117191212D01*
X38922518Y-117091044D01*
X39061769Y-117016613D01*
X39212866Y-116970778D01*
X39370000Y-116955302D01*
X39527135Y-116970778D01*
G37*
G36*
X42067135Y-116970778D02*
G01*
X42218232Y-117016613D01*
X42357483Y-117091044D01*
X42479538Y-117191212D01*
X42579706Y-117313267D01*
X42654137Y-117452518D01*
X42699972Y-117603615D01*
X42711570Y-117721375D01*
X42711570Y-118498625D01*
X42699972Y-118616385D01*
X42654137Y-118767482D01*
X42579706Y-118906733D01*
X42479538Y-119028788D01*
X42357482Y-119128956D01*
X42218231Y-119203387D01*
X42067134Y-119249222D01*
X41910000Y-119264698D01*
X41752865Y-119249222D01*
X41601768Y-119203387D01*
X41462517Y-119128956D01*
X41340462Y-119028788D01*
X41240294Y-118906732D01*
X41165863Y-118767481D01*
X41120028Y-118616384D01*
X41108430Y-118498624D01*
X41108430Y-117721375D01*
X41120028Y-117603615D01*
X41120028Y-117603614D01*
X41165863Y-117452519D01*
X41240293Y-117313271D01*
X41240295Y-117313267D01*
X41340463Y-117191212D01*
X41462518Y-117091044D01*
X41601769Y-117016613D01*
X41752866Y-116970778D01*
X41910000Y-116955302D01*
X42067135Y-116970778D01*
G37*
G36*
X44607135Y-116970778D02*
G01*
X44758232Y-117016613D01*
X44897483Y-117091044D01*
X45019538Y-117191212D01*
X45119706Y-117313267D01*
X45194137Y-117452518D01*
X45239972Y-117603615D01*
X45251570Y-117721375D01*
X45251570Y-118498625D01*
X45239972Y-118616385D01*
X45194137Y-118767482D01*
X45119706Y-118906733D01*
X45019538Y-119028788D01*
X44897482Y-119128956D01*
X44758231Y-119203387D01*
X44607134Y-119249222D01*
X44450000Y-119264698D01*
X44292865Y-119249222D01*
X44141768Y-119203387D01*
X44002517Y-119128956D01*
X43880462Y-119028788D01*
X43780294Y-118906732D01*
X43705863Y-118767481D01*
X43660028Y-118616384D01*
X43648430Y-118498624D01*
X43648430Y-117721375D01*
X43660028Y-117603615D01*
X43660028Y-117603614D01*
X43705863Y-117452519D01*
X43780293Y-117313271D01*
X43780295Y-117313267D01*
X43880463Y-117191212D01*
X44002518Y-117091044D01*
X44141769Y-117016613D01*
X44292866Y-116970778D01*
X44450000Y-116955302D01*
X44607135Y-116970778D01*
G37*
G36*
X47147135Y-116970778D02*
G01*
X47298232Y-117016613D01*
X47437483Y-117091044D01*
X47559538Y-117191212D01*
X47659706Y-117313267D01*
X47734137Y-117452518D01*
X47779972Y-117603615D01*
X47791570Y-117721375D01*
X47791570Y-118498625D01*
X47779972Y-118616385D01*
X47734137Y-118767482D01*
X47659706Y-118906733D01*
X47559538Y-119028788D01*
X47437482Y-119128956D01*
X47298231Y-119203387D01*
X47147134Y-119249222D01*
X46990000Y-119264698D01*
X46832865Y-119249222D01*
X46681768Y-119203387D01*
X46542517Y-119128956D01*
X46420462Y-119028788D01*
X46320294Y-118906732D01*
X46245863Y-118767481D01*
X46200028Y-118616384D01*
X46188430Y-118498624D01*
X46188430Y-117721375D01*
X46200028Y-117603615D01*
X46200028Y-117603614D01*
X46245863Y-117452519D01*
X46320293Y-117313271D01*
X46320295Y-117313267D01*
X46420463Y-117191212D01*
X46542518Y-117091044D01*
X46681769Y-117016613D01*
X46832866Y-116970778D01*
X46990000Y-116955302D01*
X47147135Y-116970778D01*
G37*
G36*
X52227135Y-116970778D02*
G01*
X52378232Y-117016613D01*
X52517483Y-117091044D01*
X52639538Y-117191212D01*
X52739706Y-117313267D01*
X52814137Y-117452518D01*
X52859972Y-117603615D01*
X52871570Y-117721375D01*
X52871570Y-118498625D01*
X52859972Y-118616385D01*
X52814137Y-118767482D01*
X52739706Y-118906733D01*
X52639538Y-119028788D01*
X52517482Y-119128956D01*
X52378231Y-119203387D01*
X52227134Y-119249222D01*
X52070000Y-119264698D01*
X51912865Y-119249222D01*
X51761768Y-119203387D01*
X51622517Y-119128956D01*
X51500462Y-119028788D01*
X51400294Y-118906732D01*
X51325863Y-118767481D01*
X51280028Y-118616384D01*
X51268430Y-118498624D01*
X51268430Y-117721375D01*
X51280028Y-117603615D01*
X51280028Y-117603614D01*
X51325863Y-117452519D01*
X51400293Y-117313271D01*
X51400295Y-117313267D01*
X51500463Y-117191212D01*
X51622518Y-117091044D01*
X51761769Y-117016613D01*
X51912866Y-116970778D01*
X52070000Y-116955302D01*
X52227135Y-116970778D01*
G37*
G36*
X57307135Y-116970778D02*
G01*
X57458232Y-117016613D01*
X57597483Y-117091044D01*
X57719538Y-117191212D01*
X57819706Y-117313267D01*
X57894137Y-117452518D01*
X57939972Y-117603615D01*
X57951570Y-117721375D01*
X57951570Y-118498625D01*
X57939972Y-118616385D01*
X57894137Y-118767482D01*
X57819706Y-118906733D01*
X57719538Y-119028788D01*
X57597482Y-119128956D01*
X57458231Y-119203387D01*
X57307134Y-119249222D01*
X57150000Y-119264698D01*
X56992865Y-119249222D01*
X56841768Y-119203387D01*
X56702517Y-119128956D01*
X56580462Y-119028788D01*
X56480294Y-118906732D01*
X56405863Y-118767481D01*
X56360028Y-118616384D01*
X56348430Y-118498624D01*
X56348430Y-117721375D01*
X56360028Y-117603615D01*
X56360028Y-117603614D01*
X56405863Y-117452519D01*
X56480293Y-117313271D01*
X56480295Y-117313267D01*
X56580463Y-117191212D01*
X56702518Y-117091044D01*
X56841769Y-117016613D01*
X56992866Y-116970778D01*
X57150000Y-116955302D01*
X57307135Y-116970778D01*
G37*
G36*
X59847135Y-116970778D02*
G01*
X59998232Y-117016613D01*
X60137483Y-117091044D01*
X60259538Y-117191212D01*
X60359706Y-117313267D01*
X60434137Y-117452518D01*
X60479972Y-117603615D01*
X60491570Y-117721375D01*
X60491570Y-118498625D01*
X60479972Y-118616385D01*
X60434137Y-118767482D01*
X60359706Y-118906733D01*
X60259538Y-119028788D01*
X60137482Y-119128956D01*
X59998231Y-119203387D01*
X59847134Y-119249222D01*
X59690000Y-119264698D01*
X59532865Y-119249222D01*
X59381768Y-119203387D01*
X59242517Y-119128956D01*
X59120462Y-119028788D01*
X59020294Y-118906732D01*
X58945863Y-118767481D01*
X58900028Y-118616384D01*
X58888430Y-118498624D01*
X58888430Y-117721375D01*
X58900028Y-117603615D01*
X58900028Y-117603614D01*
X58945863Y-117452519D01*
X59020293Y-117313271D01*
X59020295Y-117313267D01*
X59120463Y-117191212D01*
X59242518Y-117091044D01*
X59381769Y-117016613D01*
X59532866Y-116970778D01*
X59690000Y-116955302D01*
X59847135Y-116970778D01*
G37*
G36*
X62387135Y-116970778D02*
G01*
X62538232Y-117016613D01*
X62677483Y-117091044D01*
X62799538Y-117191212D01*
X62899706Y-117313267D01*
X62974137Y-117452518D01*
X63019972Y-117603615D01*
X63031570Y-117721375D01*
X63031570Y-118498625D01*
X63019972Y-118616385D01*
X62974137Y-118767482D01*
X62899706Y-118906733D01*
X62799538Y-119028788D01*
X62677482Y-119128956D01*
X62538231Y-119203387D01*
X62387134Y-119249222D01*
X62230000Y-119264698D01*
X62072865Y-119249222D01*
X61921768Y-119203387D01*
X61782517Y-119128956D01*
X61660462Y-119028788D01*
X61560294Y-118906732D01*
X61485863Y-118767481D01*
X61440028Y-118616384D01*
X61428430Y-118498624D01*
X61428430Y-117721375D01*
X61440028Y-117603615D01*
X61440028Y-117603614D01*
X61485863Y-117452519D01*
X61560293Y-117313271D01*
X61560295Y-117313267D01*
X61660463Y-117191212D01*
X61782518Y-117091044D01*
X61921769Y-117016613D01*
X62072866Y-116970778D01*
X62230000Y-116955302D01*
X62387135Y-116970778D01*
G37*
G36*
X54767135Y-116970778D02*
G01*
X54918232Y-117016613D01*
X55057483Y-117091044D01*
X55179538Y-117191212D01*
X55279706Y-117313267D01*
X55354137Y-117452518D01*
X55399972Y-117603615D01*
X55411570Y-117721375D01*
X55411570Y-118498625D01*
X55399972Y-118616385D01*
X55354137Y-118767482D01*
X55279706Y-118906733D01*
X55179538Y-119028788D01*
X55057482Y-119128956D01*
X54918231Y-119203387D01*
X54767134Y-119249222D01*
X54610000Y-119264698D01*
X54452865Y-119249222D01*
X54301768Y-119203387D01*
X54162517Y-119128956D01*
X54040462Y-119028788D01*
X53940294Y-118906732D01*
X53865863Y-118767481D01*
X53820028Y-118616384D01*
X53808430Y-118498624D01*
X53808430Y-117721375D01*
X53820028Y-117603615D01*
X53820028Y-117603614D01*
X53865863Y-117452519D01*
X53940293Y-117313271D01*
X53940295Y-117313267D01*
X54040463Y-117191212D01*
X54162518Y-117091044D01*
X54301769Y-117016613D01*
X54452866Y-116970778D01*
X54610000Y-116955302D01*
X54767135Y-116970778D01*
G37*
G36*
X49687135Y-116970778D02*
G01*
X49838232Y-117016613D01*
X49977483Y-117091044D01*
X50099538Y-117191212D01*
X50199706Y-117313267D01*
X50274137Y-117452518D01*
X50319972Y-117603615D01*
X50331570Y-117721375D01*
X50331570Y-118498625D01*
X50319972Y-118616385D01*
X50274137Y-118767482D01*
X50199706Y-118906733D01*
X50099538Y-119028788D01*
X49977482Y-119128956D01*
X49838231Y-119203387D01*
X49687134Y-119249222D01*
X49530000Y-119264698D01*
X49372865Y-119249222D01*
X49221768Y-119203387D01*
X49082517Y-119128956D01*
X48960462Y-119028788D01*
X48860294Y-118906732D01*
X48785863Y-118767481D01*
X48740028Y-118616384D01*
X48728430Y-118498624D01*
X48728430Y-117721375D01*
X48740028Y-117603615D01*
X48740028Y-117603614D01*
X48785863Y-117452519D01*
X48860293Y-117313271D01*
X48860295Y-117313267D01*
X48960463Y-117191212D01*
X49082518Y-117091044D01*
X49221769Y-117016613D01*
X49372866Y-116970778D01*
X49530000Y-116955302D01*
X49687135Y-116970778D01*
G37*
G36*
X53497135Y-114430778D02*
G01*
X53648232Y-114476613D01*
X53787483Y-114551044D01*
X53909538Y-114651212D01*
X54009706Y-114773267D01*
X54084137Y-114912518D01*
X54129972Y-115063615D01*
X54141570Y-115181375D01*
X54141570Y-115958625D01*
X54129972Y-116076385D01*
X54084137Y-116227482D01*
X54009706Y-116366733D01*
X53909538Y-116488788D01*
X53787482Y-116588956D01*
X53648231Y-116663387D01*
X53497134Y-116709222D01*
X53340000Y-116724698D01*
X53182865Y-116709222D01*
X53031768Y-116663387D01*
X52892517Y-116588956D01*
X52770462Y-116488788D01*
X52670294Y-116366732D01*
X52595863Y-116227481D01*
X52550028Y-116076384D01*
X52538430Y-115958624D01*
X52538430Y-115181375D01*
X52550028Y-115063615D01*
X52569185Y-115000463D01*
X52595863Y-114912519D01*
X52670293Y-114773271D01*
X52670295Y-114773267D01*
X52770463Y-114651212D01*
X52892518Y-114551044D01*
X53031769Y-114476613D01*
X53182866Y-114430778D01*
X53340000Y-114415302D01*
X53497135Y-114430778D01*
G37*
G36*
X40797135Y-114430778D02*
G01*
X40948232Y-114476613D01*
X41087483Y-114551044D01*
X41209538Y-114651212D01*
X41309706Y-114773267D01*
X41384137Y-114912518D01*
X41429972Y-115063615D01*
X41441570Y-115181375D01*
X41441570Y-115958625D01*
X41429972Y-116076385D01*
X41384137Y-116227482D01*
X41309706Y-116366733D01*
X41209538Y-116488788D01*
X41087482Y-116588956D01*
X40948231Y-116663387D01*
X40797134Y-116709222D01*
X40640000Y-116724698D01*
X40482865Y-116709222D01*
X40331768Y-116663387D01*
X40192517Y-116588956D01*
X40070462Y-116488788D01*
X39970294Y-116366732D01*
X39895863Y-116227481D01*
X39850028Y-116076384D01*
X39838430Y-115958624D01*
X39838430Y-115181375D01*
X39850028Y-115063615D01*
X39869185Y-115000463D01*
X39895863Y-114912519D01*
X39970293Y-114773271D01*
X39970295Y-114773267D01*
X40070463Y-114651212D01*
X40192518Y-114551044D01*
X40331769Y-114476613D01*
X40482866Y-114430778D01*
X40640000Y-114415302D01*
X40797135Y-114430778D01*
G37*
G36*
X43337135Y-114430778D02*
G01*
X43488232Y-114476613D01*
X43627483Y-114551044D01*
X43749538Y-114651212D01*
X43849706Y-114773267D01*
X43924137Y-114912518D01*
X43969972Y-115063615D01*
X43981570Y-115181375D01*
X43981570Y-115958625D01*
X43969972Y-116076385D01*
X43924137Y-116227482D01*
X43849706Y-116366733D01*
X43749538Y-116488788D01*
X43627482Y-116588956D01*
X43488231Y-116663387D01*
X43337134Y-116709222D01*
X43180000Y-116724698D01*
X43022865Y-116709222D01*
X42871768Y-116663387D01*
X42732517Y-116588956D01*
X42610462Y-116488788D01*
X42510294Y-116366732D01*
X42435863Y-116227481D01*
X42390028Y-116076384D01*
X42378430Y-115958624D01*
X42378430Y-115181375D01*
X42390028Y-115063615D01*
X42409185Y-115000463D01*
X42435863Y-114912519D01*
X42510293Y-114773271D01*
X42510295Y-114773267D01*
X42610463Y-114651212D01*
X42732518Y-114551044D01*
X42871769Y-114476613D01*
X43022866Y-114430778D01*
X43180000Y-114415302D01*
X43337135Y-114430778D01*
G37*
G36*
X50957135Y-114430778D02*
G01*
X51108232Y-114476613D01*
X51247483Y-114551044D01*
X51369538Y-114651212D01*
X51469706Y-114773267D01*
X51544137Y-114912518D01*
X51589972Y-115063615D01*
X51601570Y-115181375D01*
X51601570Y-115958625D01*
X51589972Y-116076385D01*
X51544137Y-116227482D01*
X51469706Y-116366733D01*
X51369538Y-116488788D01*
X51247482Y-116588956D01*
X51108231Y-116663387D01*
X50957134Y-116709222D01*
X50800000Y-116724698D01*
X50642865Y-116709222D01*
X50491768Y-116663387D01*
X50352517Y-116588956D01*
X50230462Y-116488788D01*
X50130294Y-116366732D01*
X50055863Y-116227481D01*
X50010028Y-116076384D01*
X49998430Y-115958624D01*
X49998430Y-115181375D01*
X50010028Y-115063615D01*
X50029185Y-115000463D01*
X50055863Y-114912519D01*
X50130293Y-114773271D01*
X50130295Y-114773267D01*
X50230463Y-114651212D01*
X50352518Y-114551044D01*
X50491769Y-114476613D01*
X50642866Y-114430778D01*
X50800000Y-114415302D01*
X50957135Y-114430778D01*
G37*
G36*
X34717878Y-114772296D02*
G01*
X34796385Y-114780028D01*
X34947482Y-114825863D01*
X35086733Y-114900294D01*
X35208788Y-115000462D01*
X35308956Y-115122517D01*
X35383387Y-115261768D01*
X35429222Y-115412865D01*
X35444698Y-115570000D01*
X35429222Y-115727135D01*
X35383387Y-115878232D01*
X35308956Y-116017483D01*
X35208788Y-116139538D01*
X35086733Y-116239706D01*
X34947482Y-116314137D01*
X34796385Y-116359972D01*
X34727737Y-116366733D01*
X34678626Y-116371570D01*
X33901374Y-116371570D01*
X33852263Y-116366733D01*
X33783615Y-116359972D01*
X33632518Y-116314137D01*
X33493267Y-116239706D01*
X33371212Y-116139538D01*
X33271044Y-116017483D01*
X33196613Y-115878232D01*
X33150778Y-115727135D01*
X33135302Y-115570000D01*
X33150778Y-115412865D01*
X33196613Y-115261768D01*
X33271044Y-115122517D01*
X33371212Y-115000462D01*
X33493267Y-114900294D01*
X33632518Y-114825863D01*
X33783615Y-114780028D01*
X33862122Y-114772296D01*
X33901374Y-114768430D01*
X34678626Y-114768430D01*
X34717878Y-114772296D01*
G37*
G36*
X34717878Y-112232296D02*
G01*
X34796385Y-112240028D01*
X34947482Y-112285863D01*
X35086733Y-112360294D01*
X35208788Y-112460462D01*
X35308956Y-112582517D01*
X35383387Y-112721768D01*
X35429222Y-112872865D01*
X35444698Y-113030000D01*
X35429222Y-113187135D01*
X35383387Y-113338232D01*
X35308956Y-113477483D01*
X35208788Y-113599538D01*
X35086733Y-113699706D01*
X34947482Y-113774137D01*
X34796385Y-113819972D01*
X34717878Y-113827704D01*
X34678626Y-113831570D01*
X33901374Y-113831570D01*
X33862122Y-113827704D01*
X33783615Y-113819972D01*
X33632518Y-113774137D01*
X33493267Y-113699706D01*
X33371212Y-113599538D01*
X33271044Y-113477483D01*
X33196613Y-113338232D01*
X33150778Y-113187135D01*
X33135302Y-113030000D01*
X33150778Y-112872865D01*
X33196613Y-112721768D01*
X33271044Y-112582517D01*
X33371212Y-112460462D01*
X33493267Y-112360294D01*
X33632518Y-112285863D01*
X33783615Y-112240028D01*
X33862122Y-112232296D01*
X33901374Y-112228430D01*
X34678626Y-112228430D01*
X34717878Y-112232296D01*
G37*
G36*
X34717878Y-109692296D02*
G01*
X34796385Y-109700028D01*
X34947482Y-109745863D01*
X35086733Y-109820294D01*
X35208788Y-109920462D01*
X35308956Y-110042517D01*
X35383387Y-110181768D01*
X35429222Y-110332865D01*
X35444698Y-110490000D01*
X35429222Y-110647135D01*
X35383387Y-110798232D01*
X35308956Y-110937483D01*
X35208788Y-111059538D01*
X35086733Y-111159706D01*
X34947482Y-111234137D01*
X34796385Y-111279972D01*
X34717878Y-111287704D01*
X34678626Y-111291570D01*
X33901374Y-111291570D01*
X33862122Y-111287704D01*
X33783615Y-111279972D01*
X33632518Y-111234137D01*
X33493267Y-111159706D01*
X33371212Y-111059538D01*
X33271044Y-110937483D01*
X33196613Y-110798232D01*
X33150778Y-110647135D01*
X33135302Y-110490000D01*
X33150778Y-110332865D01*
X33196613Y-110181768D01*
X33271044Y-110042517D01*
X33371212Y-109920462D01*
X33493267Y-109820294D01*
X33632518Y-109745863D01*
X33783615Y-109700028D01*
X33862122Y-109692296D01*
X33901374Y-109688430D01*
X34678626Y-109688430D01*
X34717878Y-109692296D01*
G37*
G36*
X52227135Y-101730778D02*
G01*
X52378232Y-101776613D01*
X52378234Y-101776614D01*
X52424649Y-101801423D01*
X52517483Y-101851044D01*
X52639538Y-101951212D01*
X52739706Y-102073267D01*
X52814137Y-102212518D01*
X52859972Y-102363615D01*
X52871570Y-102481375D01*
X52871570Y-103258625D01*
X52859972Y-103376385D01*
X52814137Y-103527482D01*
X52739706Y-103666733D01*
X52639538Y-103788788D01*
X52517482Y-103888956D01*
X52378231Y-103963387D01*
X52227134Y-104009222D01*
X52070000Y-104024698D01*
X51912865Y-104009222D01*
X51761768Y-103963387D01*
X51622517Y-103888956D01*
X51500462Y-103788788D01*
X51400294Y-103666732D01*
X51325863Y-103527481D01*
X51280028Y-103376384D01*
X51268430Y-103258624D01*
X51268430Y-102481375D01*
X51269907Y-102466375D01*
X51280028Y-102363614D01*
X51325863Y-102212519D01*
X51400293Y-102073271D01*
X51400295Y-102073267D01*
X51500463Y-101951212D01*
X51622518Y-101851044D01*
X51715352Y-101801423D01*
X51761767Y-101776614D01*
X51761769Y-101776613D01*
X51912866Y-101730778D01*
X52070000Y-101715302D01*
X52227135Y-101730778D01*
G37*
G36*
X34447135Y-101730778D02*
G01*
X34598232Y-101776613D01*
X34598234Y-101776614D01*
X34644649Y-101801423D01*
X34737483Y-101851044D01*
X34859538Y-101951212D01*
X34959706Y-102073267D01*
X35034137Y-102212518D01*
X35079972Y-102363615D01*
X35091570Y-102481375D01*
X35091570Y-103258625D01*
X35079972Y-103376385D01*
X35034137Y-103527482D01*
X34959706Y-103666733D01*
X34859538Y-103788788D01*
X34737482Y-103888956D01*
X34598231Y-103963387D01*
X34447134Y-104009222D01*
X34290000Y-104024698D01*
X34132865Y-104009222D01*
X33981768Y-103963387D01*
X33842517Y-103888956D01*
X33720462Y-103788788D01*
X33620294Y-103666732D01*
X33545863Y-103527481D01*
X33500028Y-103376384D01*
X33488430Y-103258624D01*
X33488430Y-102481375D01*
X33489907Y-102466375D01*
X33500028Y-102363614D01*
X33545863Y-102212519D01*
X33620293Y-102073271D01*
X33620295Y-102073267D01*
X33720463Y-101951212D01*
X33842518Y-101851044D01*
X33935352Y-101801423D01*
X33981767Y-101776614D01*
X33981769Y-101776613D01*
X34132866Y-101730778D01*
X34290000Y-101715302D01*
X34447135Y-101730778D01*
G37*
G36*
X36987135Y-101730778D02*
G01*
X37138232Y-101776613D01*
X37138234Y-101776614D01*
X37184649Y-101801423D01*
X37277483Y-101851044D01*
X37399538Y-101951212D01*
X37499706Y-102073267D01*
X37574137Y-102212518D01*
X37619972Y-102363615D01*
X37631570Y-102481375D01*
X37631570Y-103258625D01*
X37619972Y-103376385D01*
X37574137Y-103527482D01*
X37499706Y-103666733D01*
X37399538Y-103788788D01*
X37277482Y-103888956D01*
X37138231Y-103963387D01*
X36987134Y-104009222D01*
X36830000Y-104024698D01*
X36672865Y-104009222D01*
X36521768Y-103963387D01*
X36382517Y-103888956D01*
X36260462Y-103788788D01*
X36160294Y-103666732D01*
X36085863Y-103527481D01*
X36040028Y-103376384D01*
X36028430Y-103258624D01*
X36028430Y-102481375D01*
X36029907Y-102466375D01*
X36040028Y-102363614D01*
X36085863Y-102212519D01*
X36160293Y-102073271D01*
X36160295Y-102073267D01*
X36260463Y-101951212D01*
X36382518Y-101851044D01*
X36475352Y-101801423D01*
X36521767Y-101776614D01*
X36521769Y-101776613D01*
X36672866Y-101730778D01*
X36830000Y-101715302D01*
X36987135Y-101730778D01*
G37*
G36*
X39527135Y-101730778D02*
G01*
X39678232Y-101776613D01*
X39678234Y-101776614D01*
X39724649Y-101801423D01*
X39817483Y-101851044D01*
X39939538Y-101951212D01*
X40039706Y-102073267D01*
X40114137Y-102212518D01*
X40159972Y-102363615D01*
X40171570Y-102481375D01*
X40171570Y-103258625D01*
X40159972Y-103376385D01*
X40114137Y-103527482D01*
X40039706Y-103666733D01*
X39939538Y-103788788D01*
X39817482Y-103888956D01*
X39678231Y-103963387D01*
X39527134Y-104009222D01*
X39370000Y-104024698D01*
X39212865Y-104009222D01*
X39061768Y-103963387D01*
X38922517Y-103888956D01*
X38800462Y-103788788D01*
X38700294Y-103666732D01*
X38625863Y-103527481D01*
X38580028Y-103376384D01*
X38568430Y-103258624D01*
X38568430Y-102481375D01*
X38569907Y-102466375D01*
X38580028Y-102363614D01*
X38625863Y-102212519D01*
X38700293Y-102073271D01*
X38700295Y-102073267D01*
X38800463Y-101951212D01*
X38922518Y-101851044D01*
X39015352Y-101801423D01*
X39061767Y-101776614D01*
X39061769Y-101776613D01*
X39212866Y-101730778D01*
X39370000Y-101715302D01*
X39527135Y-101730778D01*
G37*
G36*
X42067135Y-101730778D02*
G01*
X42218232Y-101776613D01*
X42218234Y-101776614D01*
X42264649Y-101801423D01*
X42357483Y-101851044D01*
X42479538Y-101951212D01*
X42579706Y-102073267D01*
X42654137Y-102212518D01*
X42699972Y-102363615D01*
X42711570Y-102481375D01*
X42711570Y-103258625D01*
X42699972Y-103376385D01*
X42654137Y-103527482D01*
X42579706Y-103666733D01*
X42479538Y-103788788D01*
X42357482Y-103888956D01*
X42218231Y-103963387D01*
X42067134Y-104009222D01*
X41910000Y-104024698D01*
X41752865Y-104009222D01*
X41601768Y-103963387D01*
X41462517Y-103888956D01*
X41340462Y-103788788D01*
X41240294Y-103666732D01*
X41165863Y-103527481D01*
X41120028Y-103376384D01*
X41108430Y-103258624D01*
X41108430Y-102481375D01*
X41109907Y-102466375D01*
X41120028Y-102363614D01*
X41165863Y-102212519D01*
X41240293Y-102073271D01*
X41240295Y-102073267D01*
X41340463Y-101951212D01*
X41462518Y-101851044D01*
X41555352Y-101801423D01*
X41601767Y-101776614D01*
X41601769Y-101776613D01*
X41752866Y-101730778D01*
X41910000Y-101715302D01*
X42067135Y-101730778D01*
G37*
G36*
X44607135Y-101730778D02*
G01*
X44758232Y-101776613D01*
X44758234Y-101776614D01*
X44804649Y-101801423D01*
X44897483Y-101851044D01*
X45019538Y-101951212D01*
X45119706Y-102073267D01*
X45194137Y-102212518D01*
X45239972Y-102363615D01*
X45251570Y-102481375D01*
X45251570Y-103258625D01*
X45239972Y-103376385D01*
X45194137Y-103527482D01*
X45119706Y-103666733D01*
X45019538Y-103788788D01*
X44897482Y-103888956D01*
X44758231Y-103963387D01*
X44607134Y-104009222D01*
X44450000Y-104024698D01*
X44292865Y-104009222D01*
X44141768Y-103963387D01*
X44002517Y-103888956D01*
X43880462Y-103788788D01*
X43780294Y-103666732D01*
X43705863Y-103527481D01*
X43660028Y-103376384D01*
X43648430Y-103258624D01*
X43648430Y-102481375D01*
X43649907Y-102466375D01*
X43660028Y-102363614D01*
X43705863Y-102212519D01*
X43780293Y-102073271D01*
X43780295Y-102073267D01*
X43880463Y-101951212D01*
X44002518Y-101851044D01*
X44095352Y-101801423D01*
X44141767Y-101776614D01*
X44141769Y-101776613D01*
X44292866Y-101730778D01*
X44450000Y-101715302D01*
X44607135Y-101730778D01*
G37*
G36*
X47147135Y-101730778D02*
G01*
X47298232Y-101776613D01*
X47298234Y-101776614D01*
X47344649Y-101801423D01*
X47437483Y-101851044D01*
X47559538Y-101951212D01*
X47659706Y-102073267D01*
X47734137Y-102212518D01*
X47779972Y-102363615D01*
X47791570Y-102481375D01*
X47791570Y-103258625D01*
X47779972Y-103376385D01*
X47734137Y-103527482D01*
X47659706Y-103666733D01*
X47559538Y-103788788D01*
X47437482Y-103888956D01*
X47298231Y-103963387D01*
X47147134Y-104009222D01*
X46990000Y-104024698D01*
X46832865Y-104009222D01*
X46681768Y-103963387D01*
X46542517Y-103888956D01*
X46420462Y-103788788D01*
X46320294Y-103666732D01*
X46245863Y-103527481D01*
X46200028Y-103376384D01*
X46188430Y-103258624D01*
X46188430Y-102481375D01*
X46189907Y-102466375D01*
X46200028Y-102363614D01*
X46245863Y-102212519D01*
X46320293Y-102073271D01*
X46320295Y-102073267D01*
X46420463Y-101951212D01*
X46542518Y-101851044D01*
X46635352Y-101801423D01*
X46681767Y-101776614D01*
X46681769Y-101776613D01*
X46832866Y-101730778D01*
X46990000Y-101715302D01*
X47147135Y-101730778D01*
G37*
G36*
X49687135Y-101730778D02*
G01*
X49838232Y-101776613D01*
X49838234Y-101776614D01*
X49884649Y-101801423D01*
X49977483Y-101851044D01*
X50099538Y-101951212D01*
X50199706Y-102073267D01*
X50274137Y-102212518D01*
X50319972Y-102363615D01*
X50331570Y-102481375D01*
X50331570Y-103258625D01*
X50319972Y-103376385D01*
X50274137Y-103527482D01*
X50199706Y-103666733D01*
X50099538Y-103788788D01*
X49977482Y-103888956D01*
X49838231Y-103963387D01*
X49687134Y-104009222D01*
X49530000Y-104024698D01*
X49372865Y-104009222D01*
X49221768Y-103963387D01*
X49082517Y-103888956D01*
X48960462Y-103788788D01*
X48860294Y-103666732D01*
X48785863Y-103527481D01*
X48740028Y-103376384D01*
X48728430Y-103258624D01*
X48728430Y-102481375D01*
X48729907Y-102466375D01*
X48740028Y-102363614D01*
X48785863Y-102212519D01*
X48860293Y-102073271D01*
X48860295Y-102073267D01*
X48960463Y-101951212D01*
X49082518Y-101851044D01*
X49175352Y-101801423D01*
X49221767Y-101776614D01*
X49221769Y-101776613D01*
X49372866Y-101730778D01*
X49530000Y-101715302D01*
X49687135Y-101730778D01*
G37*
G36*
X54767135Y-101730778D02*
G01*
X54918232Y-101776613D01*
X54918234Y-101776614D01*
X54964649Y-101801423D01*
X55057483Y-101851044D01*
X55179538Y-101951212D01*
X55279706Y-102073267D01*
X55354137Y-102212518D01*
X55399972Y-102363615D01*
X55411570Y-102481375D01*
X55411570Y-103258625D01*
X55399972Y-103376385D01*
X55354137Y-103527482D01*
X55279706Y-103666733D01*
X55179538Y-103788788D01*
X55057482Y-103888956D01*
X54918231Y-103963387D01*
X54767134Y-104009222D01*
X54610000Y-104024698D01*
X54452865Y-104009222D01*
X54301768Y-103963387D01*
X54162517Y-103888956D01*
X54040462Y-103788788D01*
X53940294Y-103666732D01*
X53865863Y-103527481D01*
X53820028Y-103376384D01*
X53808430Y-103258624D01*
X53808430Y-102481375D01*
X53809907Y-102466375D01*
X53820028Y-102363614D01*
X53865863Y-102212519D01*
X53940293Y-102073271D01*
X53940295Y-102073267D01*
X54040463Y-101951212D01*
X54162518Y-101851044D01*
X54255352Y-101801423D01*
X54301767Y-101776614D01*
X54301769Y-101776613D01*
X54452866Y-101730778D01*
X54610000Y-101715302D01*
X54767135Y-101730778D01*
G37*
G36*
X62387135Y-101730778D02*
G01*
X62538232Y-101776613D01*
X62538234Y-101776614D01*
X62584649Y-101801423D01*
X62677483Y-101851044D01*
X62799538Y-101951212D01*
X62899706Y-102073267D01*
X62974137Y-102212518D01*
X63019972Y-102363615D01*
X63031570Y-102481375D01*
X63031570Y-103258625D01*
X63019972Y-103376385D01*
X62974137Y-103527482D01*
X62899706Y-103666733D01*
X62799538Y-103788788D01*
X62677482Y-103888956D01*
X62538231Y-103963387D01*
X62387134Y-104009222D01*
X62230000Y-104024698D01*
X62072865Y-104009222D01*
X61921768Y-103963387D01*
X61782517Y-103888956D01*
X61660462Y-103788788D01*
X61560294Y-103666732D01*
X61485863Y-103527481D01*
X61440028Y-103376384D01*
X61428430Y-103258624D01*
X61428430Y-102481375D01*
X61429907Y-102466375D01*
X61440028Y-102363614D01*
X61485863Y-102212519D01*
X61560293Y-102073271D01*
X61560295Y-102073267D01*
X61660463Y-101951212D01*
X61782518Y-101851044D01*
X61875352Y-101801423D01*
X61921767Y-101776614D01*
X61921769Y-101776613D01*
X62072866Y-101730778D01*
X62230000Y-101715302D01*
X62387135Y-101730778D01*
G37*
G36*
X59847135Y-101730778D02*
G01*
X59998232Y-101776613D01*
X59998234Y-101776614D01*
X60044649Y-101801423D01*
X60137483Y-101851044D01*
X60259538Y-101951212D01*
X60359706Y-102073267D01*
X60434137Y-102212518D01*
X60479972Y-102363615D01*
X60491570Y-102481375D01*
X60491570Y-103258625D01*
X60479972Y-103376385D01*
X60434137Y-103527482D01*
X60359706Y-103666733D01*
X60259538Y-103788788D01*
X60137482Y-103888956D01*
X59998231Y-103963387D01*
X59847134Y-104009222D01*
X59690000Y-104024698D01*
X59532865Y-104009222D01*
X59381768Y-103963387D01*
X59242517Y-103888956D01*
X59120462Y-103788788D01*
X59020294Y-103666732D01*
X58945863Y-103527481D01*
X58900028Y-103376384D01*
X58888430Y-103258624D01*
X58888430Y-102481375D01*
X58889907Y-102466375D01*
X58900028Y-102363614D01*
X58945863Y-102212519D01*
X59020293Y-102073271D01*
X59020295Y-102073267D01*
X59120463Y-101951212D01*
X59242518Y-101851044D01*
X59335352Y-101801423D01*
X59381767Y-101776614D01*
X59381769Y-101776613D01*
X59532866Y-101730778D01*
X59690000Y-101715302D01*
X59847135Y-101730778D01*
G37*
G36*
X57307135Y-101730778D02*
G01*
X57458232Y-101776613D01*
X57458234Y-101776614D01*
X57504649Y-101801423D01*
X57597483Y-101851044D01*
X57719538Y-101951212D01*
X57819706Y-102073267D01*
X57894137Y-102212518D01*
X57939972Y-102363615D01*
X57951570Y-102481375D01*
X57951570Y-103258625D01*
X57939972Y-103376385D01*
X57894137Y-103527482D01*
X57819706Y-103666733D01*
X57719538Y-103788788D01*
X57597482Y-103888956D01*
X57458231Y-103963387D01*
X57307134Y-104009222D01*
X57150000Y-104024698D01*
X56992865Y-104009222D01*
X56841768Y-103963387D01*
X56702517Y-103888956D01*
X56580462Y-103788788D01*
X56480294Y-103666732D01*
X56405863Y-103527481D01*
X56360028Y-103376384D01*
X56348430Y-103258624D01*
X56348430Y-102481375D01*
X56349907Y-102466375D01*
X56360028Y-102363614D01*
X56405863Y-102212519D01*
X56480293Y-102073271D01*
X56480295Y-102073267D01*
X56580463Y-101951212D01*
X56702518Y-101851044D01*
X56795352Y-101801423D01*
X56841767Y-101776614D01*
X56841769Y-101776613D01*
X56992866Y-101730778D01*
X57150000Y-101715302D01*
X57307135Y-101730778D01*
G37*
G36*
X96633512Y-100703927D02*
G01*
X96782812Y-100733624D01*
X96946784Y-100801544D01*
X97094354Y-100900147D01*
X97219853Y-101025646D01*
X97318456Y-101173216D01*
X97386376Y-101337188D01*
X97421000Y-101511259D01*
X97421000Y-101688741D01*
X97386376Y-101862812D01*
X97318456Y-102026784D01*
X97219853Y-102174354D01*
X97094354Y-102299853D01*
X96946784Y-102398456D01*
X96782812Y-102466376D01*
X96633512Y-102496073D01*
X96608742Y-102501000D01*
X96431258Y-102501000D01*
X96406488Y-102496073D01*
X96257188Y-102466376D01*
X96093216Y-102398456D01*
X95945646Y-102299853D01*
X95820147Y-102174354D01*
X95721544Y-102026784D01*
X95653624Y-101862812D01*
X95619000Y-101688741D01*
X95619000Y-101511259D01*
X95653624Y-101337188D01*
X95721544Y-101173216D01*
X95820147Y-101025646D01*
X95945646Y-100900147D01*
X96093216Y-100801544D01*
X96257188Y-100733624D01*
X96406488Y-100703927D01*
X96431258Y-100699000D01*
X96608742Y-100699000D01*
X96633512Y-100703927D01*
G37*
G36*
X99173512Y-100703927D02*
G01*
X99322812Y-100733624D01*
X99486784Y-100801544D01*
X99634354Y-100900147D01*
X99759853Y-101025646D01*
X99858456Y-101173216D01*
X99926376Y-101337188D01*
X99961000Y-101511259D01*
X99961000Y-101688741D01*
X99926376Y-101862812D01*
X99858456Y-102026784D01*
X99759853Y-102174354D01*
X99634354Y-102299853D01*
X99486784Y-102398456D01*
X99322812Y-102466376D01*
X99173512Y-102496073D01*
X99148742Y-102501000D01*
X98971258Y-102501000D01*
X98946488Y-102496073D01*
X98797188Y-102466376D01*
X98633216Y-102398456D01*
X98485646Y-102299853D01*
X98360147Y-102174354D01*
X98261544Y-102026784D01*
X98193624Y-101862812D01*
X98159000Y-101688741D01*
X98159000Y-101511259D01*
X98193624Y-101337188D01*
X98261544Y-101173216D01*
X98360147Y-101025646D01*
X98485646Y-100900147D01*
X98633216Y-100801544D01*
X98797188Y-100733624D01*
X98946488Y-100703927D01*
X98971258Y-100699000D01*
X99148742Y-100699000D01*
X99173512Y-100703927D01*
G37*
G36*
X101713512Y-100703927D02*
G01*
X101862812Y-100733624D01*
X102026784Y-100801544D01*
X102174354Y-100900147D01*
X102299853Y-101025646D01*
X102398456Y-101173216D01*
X102466376Y-101337188D01*
X102501000Y-101511259D01*
X102501000Y-101688741D01*
X102466376Y-101862812D01*
X102398456Y-102026784D01*
X102299853Y-102174354D01*
X102174354Y-102299853D01*
X102026784Y-102398456D01*
X101862812Y-102466376D01*
X101713512Y-102496073D01*
X101688742Y-102501000D01*
X101511258Y-102501000D01*
X101486488Y-102496073D01*
X101337188Y-102466376D01*
X101173216Y-102398456D01*
X101025646Y-102299853D01*
X100900147Y-102174354D01*
X100801544Y-102026784D01*
X100733624Y-101862812D01*
X100699000Y-101688741D01*
X100699000Y-101511259D01*
X100733624Y-101337188D01*
X100801544Y-101173216D01*
X100900147Y-101025646D01*
X101025646Y-100900147D01*
X101173216Y-100801544D01*
X101337188Y-100733624D01*
X101486488Y-100703927D01*
X101511258Y-100699000D01*
X101688742Y-100699000D01*
X101713512Y-100703927D01*
G37*
G36*
X104253512Y-100703927D02*
G01*
X104402812Y-100733624D01*
X104566784Y-100801544D01*
X104714354Y-100900147D01*
X104839853Y-101025646D01*
X104938456Y-101173216D01*
X105006376Y-101337188D01*
X105041000Y-101511259D01*
X105041000Y-101688741D01*
X105006376Y-101862812D01*
X104938456Y-102026784D01*
X104839853Y-102174354D01*
X104714354Y-102299853D01*
X104566784Y-102398456D01*
X104402812Y-102466376D01*
X104253512Y-102496073D01*
X104228742Y-102501000D01*
X104051258Y-102501000D01*
X104026488Y-102496073D01*
X103877188Y-102466376D01*
X103713216Y-102398456D01*
X103565646Y-102299853D01*
X103440147Y-102174354D01*
X103341544Y-102026784D01*
X103273624Y-101862812D01*
X103239000Y-101688741D01*
X103239000Y-101511259D01*
X103273624Y-101337188D01*
X103341544Y-101173216D01*
X103440147Y-101025646D01*
X103565646Y-100900147D01*
X103713216Y-100801544D01*
X103877188Y-100733624D01*
X104026488Y-100703927D01*
X104051258Y-100699000D01*
X104228742Y-100699000D01*
X104253512Y-100703927D01*
G37*
G36*
X106793512Y-100703927D02*
G01*
X106942812Y-100733624D01*
X107106784Y-100801544D01*
X107254354Y-100900147D01*
X107379853Y-101025646D01*
X107478456Y-101173216D01*
X107546376Y-101337188D01*
X107581000Y-101511259D01*
X107581000Y-101688741D01*
X107546376Y-101862812D01*
X107478456Y-102026784D01*
X107379853Y-102174354D01*
X107254354Y-102299853D01*
X107106784Y-102398456D01*
X106942812Y-102466376D01*
X106793512Y-102496073D01*
X106768742Y-102501000D01*
X106591258Y-102501000D01*
X106566488Y-102496073D01*
X106417188Y-102466376D01*
X106253216Y-102398456D01*
X106105646Y-102299853D01*
X105980147Y-102174354D01*
X105881544Y-102026784D01*
X105813624Y-101862812D01*
X105779000Y-101688741D01*
X105779000Y-101511259D01*
X105813624Y-101337188D01*
X105881544Y-101173216D01*
X105980147Y-101025646D01*
X106105646Y-100900147D01*
X106253216Y-100801544D01*
X106417188Y-100733624D01*
X106566488Y-100703927D01*
X106591258Y-100699000D01*
X106768742Y-100699000D01*
X106793512Y-100703927D01*
G37*
G36*
X94881000Y-102501000D02*
G01*
X93079000Y-102501000D01*
X93079000Y-100699000D01*
X94881000Y-100699000D01*
X94881000Y-102501000D01*
G37*
G36*
X109333512Y-100703927D02*
G01*
X109482812Y-100733624D01*
X109646784Y-100801544D01*
X109794354Y-100900147D01*
X109919853Y-101025646D01*
X110018456Y-101173216D01*
X110086376Y-101337188D01*
X110121000Y-101511259D01*
X110121000Y-101688741D01*
X110086376Y-101862812D01*
X110018456Y-102026784D01*
X109919853Y-102174354D01*
X109794354Y-102299853D01*
X109646784Y-102398456D01*
X109482812Y-102466376D01*
X109333512Y-102496073D01*
X109308742Y-102501000D01*
X109131258Y-102501000D01*
X109106488Y-102496073D01*
X108957188Y-102466376D01*
X108793216Y-102398456D01*
X108645646Y-102299853D01*
X108520147Y-102174354D01*
X108421544Y-102026784D01*
X108353624Y-101862812D01*
X108319000Y-101688741D01*
X108319000Y-101511259D01*
X108353624Y-101337188D01*
X108421544Y-101173216D01*
X108520147Y-101025646D01*
X108645646Y-100900147D01*
X108793216Y-100801544D01*
X108957188Y-100733624D01*
X109106488Y-100703927D01*
X109131258Y-100699000D01*
X109308742Y-100699000D01*
X109333512Y-100703927D01*
G37*
G36*
X111873512Y-100703927D02*
G01*
X112022812Y-100733624D01*
X112186784Y-100801544D01*
X112334354Y-100900147D01*
X112459853Y-101025646D01*
X112558456Y-101173216D01*
X112626376Y-101337188D01*
X112661000Y-101511259D01*
X112661000Y-101688741D01*
X112626376Y-101862812D01*
X112558456Y-102026784D01*
X112459853Y-102174354D01*
X112334354Y-102299853D01*
X112186784Y-102398456D01*
X112022812Y-102466376D01*
X111873512Y-102496073D01*
X111848742Y-102501000D01*
X111671258Y-102501000D01*
X111646488Y-102496073D01*
X111497188Y-102466376D01*
X111333216Y-102398456D01*
X111185646Y-102299853D01*
X111060147Y-102174354D01*
X110961544Y-102026784D01*
X110893624Y-101862812D01*
X110859000Y-101688741D01*
X110859000Y-101511259D01*
X110893624Y-101337188D01*
X110961544Y-101173216D01*
X111060147Y-101025646D01*
X111185646Y-100900147D01*
X111333216Y-100801544D01*
X111497188Y-100733624D01*
X111646488Y-100703927D01*
X111671258Y-100699000D01*
X111848742Y-100699000D01*
X111873512Y-100703927D01*
G37*
G36*
X83063699Y-100390180D02*
G01*
X83200372Y-100446792D01*
X83323375Y-100528980D01*
X83427980Y-100633585D01*
X83510168Y-100756588D01*
X83510169Y-100756590D01*
X83566780Y-100893261D01*
X83593113Y-101025646D01*
X83595640Y-101038353D01*
X83595640Y-101186287D01*
X83566780Y-101331379D01*
X83510168Y-101468052D01*
X83427980Y-101591055D01*
X83323375Y-101695660D01*
X83200372Y-101777848D01*
X83200371Y-101777849D01*
X83200370Y-101777849D01*
X83063699Y-101834460D01*
X82918608Y-101863320D01*
X82770672Y-101863320D01*
X82625581Y-101834460D01*
X82488910Y-101777849D01*
X82488909Y-101777849D01*
X82488908Y-101777848D01*
X82365905Y-101695660D01*
X82261300Y-101591055D01*
X82179112Y-101468052D01*
X82122500Y-101331379D01*
X82093640Y-101186287D01*
X82093640Y-101038353D01*
X82096168Y-101025646D01*
X82122500Y-100893261D01*
X82179111Y-100756590D01*
X82179112Y-100756588D01*
X82261300Y-100633585D01*
X82365905Y-100528980D01*
X82488908Y-100446792D01*
X82625581Y-100390180D01*
X82770672Y-100361320D01*
X82918608Y-100361320D01*
X83063699Y-100390180D01*
G37*
G36*
X90683699Y-100390180D02*
G01*
X90820372Y-100446792D01*
X90943375Y-100528980D01*
X91047980Y-100633585D01*
X91130168Y-100756588D01*
X91130169Y-100756590D01*
X91186780Y-100893261D01*
X91213113Y-101025646D01*
X91215640Y-101038353D01*
X91215640Y-101186287D01*
X91186780Y-101331379D01*
X91130168Y-101468052D01*
X91047980Y-101591055D01*
X90943375Y-101695660D01*
X90820372Y-101777848D01*
X90820371Y-101777849D01*
X90820370Y-101777849D01*
X90683699Y-101834460D01*
X90538608Y-101863320D01*
X90390672Y-101863320D01*
X90245581Y-101834460D01*
X90108910Y-101777849D01*
X90108909Y-101777849D01*
X90108908Y-101777848D01*
X89985905Y-101695660D01*
X89881300Y-101591055D01*
X89799112Y-101468052D01*
X89742500Y-101331379D01*
X89713640Y-101186287D01*
X89713640Y-101038353D01*
X89716168Y-101025646D01*
X89742500Y-100893261D01*
X89799111Y-100756590D01*
X89799112Y-100756588D01*
X89881300Y-100633585D01*
X89985905Y-100528980D01*
X90108908Y-100446792D01*
X90245581Y-100390180D01*
X90390672Y-100361320D01*
X90538608Y-100361320D01*
X90683699Y-100390180D01*
G37*
M02*
