G04 #@! TF.GenerationSoftware,KiCad,Pcbnew,(5.1.5)-3*
G04 #@! TF.CreationDate,2020-06-10T08:40:25+02:00*
G04 #@! TF.ProjectId,BOTLAND-2-KONTROLA-DOSTEPU,424f544c-414e-4442-9d32-2d4b4f4e5452,rev?*
G04 #@! TF.SameCoordinates,Original*
G04 #@! TF.FileFunction,Copper,L2,Bot*
G04 #@! TF.FilePolarity,Positive*
%FSLAX46Y46*%
G04 Gerber Fmt 4.6, Leading zero omitted, Abs format (unit mm)*
G04 Created by KiCad (PCBNEW (5.1.5)-3) date 2020-06-10 08:40:25*
%MOMM*%
%LPD*%
G04 APERTURE LIST*
%ADD10C,0.150000*%
%ADD11O,1.400000X1.400000*%
%ADD12C,1.400000*%
%ADD13O,1.700000X1.700000*%
%ADD14R,1.700000X1.700000*%
%ADD15O,1.070000X1.800000*%
%ADD16R,1.070000X1.800000*%
%ADD17O,2.199640X1.501140*%
%ADD18O,1.501140X2.199640*%
%ADD19C,2.400000*%
%ADD20R,2.400000X2.400000*%
%ADD21O,2.000000X1.905000*%
%ADD22R,2.000000X1.905000*%
%ADD23C,0.100000*%
%ADD24R,1.500000X1.050000*%
%ADD25R,2.800000X2.800000*%
%ADD26O,2.800000X2.800000*%
%ADD27C,1.600000*%
%ADD28C,3.000000*%
%ADD29C,0.800000*%
%ADD30C,0.400000*%
%ADD31C,0.750000*%
%ADD32C,0.250000*%
G04 APERTURE END LIST*
D10*
X22860000Y-95250000D02*
X22860000Y-156210000D01*
X24130000Y-95250000D02*
X22860000Y-95250000D01*
X114300000Y-95250000D02*
X24130000Y-95250000D01*
X114300000Y-156210000D02*
X114300000Y-95250000D01*
X22860000Y-156210000D02*
X114300000Y-156210000D01*
D11*
X90464640Y-101112320D03*
D12*
X82844640Y-101112320D03*
D13*
X111760000Y-101600000D03*
X109220000Y-101600000D03*
X106680000Y-101600000D03*
X104140000Y-101600000D03*
X101600000Y-101600000D03*
X99060000Y-101600000D03*
X96520000Y-101600000D03*
D14*
X93980000Y-101600000D03*
D15*
X74930000Y-121920000D03*
X73660000Y-121920000D03*
X72390000Y-121920000D03*
D16*
X71120000Y-121920000D03*
D17*
X34290000Y-110490000D03*
X34290000Y-113030000D03*
X34290000Y-115570000D03*
D18*
X53340000Y-115570000D03*
X50800000Y-115570000D03*
X62230000Y-118110000D03*
X59690000Y-118110000D03*
X57150000Y-118110000D03*
X54610000Y-118110000D03*
X52070000Y-118110000D03*
X49530000Y-118110000D03*
X46990000Y-118110000D03*
X44450000Y-118110000D03*
X41910000Y-118110000D03*
X39370000Y-118110000D03*
X36830000Y-118110000D03*
X34290000Y-118110000D03*
X34290000Y-102870000D03*
X36830000Y-102870000D03*
X39370000Y-102870000D03*
X41910000Y-102870000D03*
X44450000Y-102870000D03*
X46990000Y-102870000D03*
X49530000Y-102870000D03*
X52070000Y-102870000D03*
X54610000Y-102870000D03*
X57150000Y-102870000D03*
X59690000Y-102870000D03*
X62230000Y-102870000D03*
X40640000Y-115570000D03*
X43180000Y-115570000D03*
D19*
X28102560Y-147157560D03*
D20*
X28102560Y-150657560D03*
D21*
X36830000Y-146050000D03*
X36830000Y-148590000D03*
D22*
X36830000Y-151130000D03*
D12*
X76494640Y-130322320D03*
D11*
X84114640Y-130322320D03*
G04 #@! TA.AperFunction,ComponentPad*
D23*
G36*
X72222509Y-129834144D02*
G01*
X72247991Y-129837924D01*
X72272980Y-129844183D01*
X72297234Y-129852862D01*
X72320522Y-129863876D01*
X72342617Y-129877119D01*
X72363308Y-129892465D01*
X72382396Y-129909764D01*
X72399695Y-129928852D01*
X72415041Y-129949543D01*
X72428284Y-129971638D01*
X72439298Y-129994926D01*
X72447977Y-130019180D01*
X72454236Y-130044169D01*
X72458016Y-130069651D01*
X72459280Y-130095380D01*
X72459280Y-130620380D01*
X72458016Y-130646109D01*
X72454236Y-130671591D01*
X72447977Y-130696580D01*
X72439298Y-130720834D01*
X72428284Y-130744122D01*
X72415041Y-130766217D01*
X72399695Y-130786908D01*
X72382396Y-130805996D01*
X72363308Y-130823295D01*
X72342617Y-130838641D01*
X72320522Y-130851884D01*
X72297234Y-130862898D01*
X72272980Y-130871577D01*
X72247991Y-130877836D01*
X72222509Y-130881616D01*
X72196780Y-130882880D01*
X71221780Y-130882880D01*
X71196051Y-130881616D01*
X71170569Y-130877836D01*
X71145580Y-130871577D01*
X71121326Y-130862898D01*
X71098038Y-130851884D01*
X71075943Y-130838641D01*
X71055252Y-130823295D01*
X71036164Y-130805996D01*
X71018865Y-130786908D01*
X71003519Y-130766217D01*
X70990276Y-130744122D01*
X70979262Y-130720834D01*
X70970583Y-130696580D01*
X70964324Y-130671591D01*
X70960544Y-130646109D01*
X70959280Y-130620380D01*
X70959280Y-130095380D01*
X70960544Y-130069651D01*
X70964324Y-130044169D01*
X70970583Y-130019180D01*
X70979262Y-129994926D01*
X70990276Y-129971638D01*
X71003519Y-129949543D01*
X71018865Y-129928852D01*
X71036164Y-129909764D01*
X71055252Y-129892465D01*
X71075943Y-129877119D01*
X71098038Y-129863876D01*
X71121326Y-129852862D01*
X71145580Y-129844183D01*
X71170569Y-129837924D01*
X71196051Y-129834144D01*
X71221780Y-129832880D01*
X72196780Y-129832880D01*
X72222509Y-129834144D01*
G37*
G04 #@! TD.AperFunction*
G04 #@! TA.AperFunction,ComponentPad*
G36*
X72222509Y-128564144D02*
G01*
X72247991Y-128567924D01*
X72272980Y-128574183D01*
X72297234Y-128582862D01*
X72320522Y-128593876D01*
X72342617Y-128607119D01*
X72363308Y-128622465D01*
X72382396Y-128639764D01*
X72399695Y-128658852D01*
X72415041Y-128679543D01*
X72428284Y-128701638D01*
X72439298Y-128724926D01*
X72447977Y-128749180D01*
X72454236Y-128774169D01*
X72458016Y-128799651D01*
X72459280Y-128825380D01*
X72459280Y-129350380D01*
X72458016Y-129376109D01*
X72454236Y-129401591D01*
X72447977Y-129426580D01*
X72439298Y-129450834D01*
X72428284Y-129474122D01*
X72415041Y-129496217D01*
X72399695Y-129516908D01*
X72382396Y-129535996D01*
X72363308Y-129553295D01*
X72342617Y-129568641D01*
X72320522Y-129581884D01*
X72297234Y-129592898D01*
X72272980Y-129601577D01*
X72247991Y-129607836D01*
X72222509Y-129611616D01*
X72196780Y-129612880D01*
X71221780Y-129612880D01*
X71196051Y-129611616D01*
X71170569Y-129607836D01*
X71145580Y-129601577D01*
X71121326Y-129592898D01*
X71098038Y-129581884D01*
X71075943Y-129568641D01*
X71055252Y-129553295D01*
X71036164Y-129535996D01*
X71018865Y-129516908D01*
X71003519Y-129496217D01*
X70990276Y-129474122D01*
X70979262Y-129450834D01*
X70970583Y-129426580D01*
X70964324Y-129401591D01*
X70960544Y-129376109D01*
X70959280Y-129350380D01*
X70959280Y-128825380D01*
X70960544Y-128799651D01*
X70964324Y-128774169D01*
X70970583Y-128749180D01*
X70979262Y-128724926D01*
X70990276Y-128701638D01*
X71003519Y-128679543D01*
X71018865Y-128658852D01*
X71036164Y-128639764D01*
X71055252Y-128622465D01*
X71075943Y-128607119D01*
X71098038Y-128593876D01*
X71121326Y-128582862D01*
X71145580Y-128574183D01*
X71170569Y-128567924D01*
X71196051Y-128564144D01*
X71221780Y-128562880D01*
X72196780Y-128562880D01*
X72222509Y-128564144D01*
G37*
G04 #@! TD.AperFunction*
D24*
X71709280Y-131627880D03*
D20*
X28102560Y-132877560D03*
D19*
X28102560Y-129377560D03*
D25*
X62677040Y-136067800D03*
D26*
X62677040Y-125907800D03*
D27*
X57139840Y-132974080D03*
X57139840Y-127974080D03*
D28*
X49059080Y-125307840D03*
X36859080Y-125307840D03*
X36859080Y-137307840D03*
X49059080Y-137307840D03*
X51059080Y-131307840D03*
D29*
X54610000Y-138430000D03*
X67310000Y-113030000D03*
X81280000Y-110490000D03*
D30*
X60233560Y-136067800D02*
X57139840Y-132974080D01*
X62677040Y-136067800D02*
X60233560Y-136067800D01*
X52806080Y-137307840D02*
X49059080Y-137307840D01*
X57139840Y-132974080D02*
X52806080Y-137307840D01*
X59206120Y-125907800D02*
X57139840Y-127974080D01*
X62677040Y-125907800D02*
X59206120Y-125907800D01*
X51725320Y-127974080D02*
X49059080Y-125307840D01*
X57139840Y-127974080D02*
X51725320Y-127974080D01*
X65857120Y-129087880D02*
X62677040Y-125907800D01*
X71709280Y-129087880D02*
X65857120Y-129087880D01*
D31*
X29672280Y-131307840D02*
X28102560Y-132877560D01*
X51059080Y-131307840D02*
X29672280Y-131307840D01*
D32*
X71744840Y-130322320D02*
X71709280Y-130357880D01*
X76494640Y-130322320D02*
X71744840Y-130322320D01*
D31*
X28575000Y-151130000D02*
X28102560Y-150657560D01*
X36830000Y-151130000D02*
X28575000Y-151130000D01*
X36830000Y-148590000D02*
X31750000Y-148590000D01*
X30317560Y-147157560D02*
X28102560Y-147157560D01*
X31750000Y-148590000D02*
X30317560Y-147157560D01*
D30*
X54610000Y-138430000D02*
X54610000Y-146050000D01*
D31*
X62230000Y-146050000D02*
X54610000Y-146050000D01*
X54610000Y-146050000D02*
X36830000Y-146050000D01*
D30*
X41910000Y-102870000D02*
X41910000Y-100330000D01*
X41910000Y-100330000D02*
X73660000Y-100330000D01*
X73660000Y-100330000D02*
X73660000Y-121920000D01*
X39370000Y-102870000D02*
X39370000Y-105410000D01*
X39370000Y-105410000D02*
X71120000Y-105410000D01*
X71120000Y-105410000D02*
X71120000Y-121920000D01*
X62230000Y-136514840D02*
X62677040Y-136067800D01*
X62230000Y-146050000D02*
X62230000Y-136514840D01*
X36830000Y-102870000D02*
X36830000Y-107950000D01*
X36830000Y-107950000D02*
X62230000Y-107950000D01*
X62230000Y-107950000D02*
X67310000Y-113030000D01*
X67310000Y-113030000D02*
X67310000Y-113030000D01*
X90952320Y-101600000D02*
X90464640Y-101112320D01*
X93980000Y-101600000D02*
X90952320Y-101600000D01*
X82844640Y-101112320D02*
X82844640Y-119674640D01*
X82844640Y-119674640D02*
X86360000Y-123190000D01*
X86360000Y-123190000D02*
X86360000Y-130810000D01*
X86360000Y-130810000D02*
X77470000Y-139700000D01*
X77470000Y-139700000D02*
X73660000Y-139700000D01*
X67310000Y-146050000D02*
X62230000Y-146050000D01*
X73660000Y-139700000D02*
X67310000Y-146050000D01*
X96520000Y-101600000D02*
X96520000Y-97790000D01*
X96520000Y-97790000D02*
X38100000Y-97790000D01*
X34290000Y-101600000D02*
X34290000Y-102870000D01*
X38100000Y-97790000D02*
X34290000Y-101600000D01*
X99060000Y-101600000D02*
X99060000Y-106680000D01*
X99060000Y-106680000D02*
X90170000Y-115570000D01*
X90170000Y-115570000D02*
X90170000Y-129540000D01*
X90170000Y-129540000D02*
X71120000Y-148590000D01*
X71120000Y-148590000D02*
X36830000Y-148590000D01*
X41910000Y-118110000D02*
X41910000Y-120650000D01*
X41910000Y-120650000D02*
X43180000Y-121920000D01*
X43180000Y-121920000D02*
X67310000Y-121920000D01*
X67310000Y-121920000D02*
X72390000Y-127000000D01*
X72390000Y-127000000D02*
X76200000Y-127000000D01*
X76200000Y-127000000D02*
X81280000Y-121920000D01*
X81280000Y-121920000D02*
X81280000Y-110490000D01*
X81280000Y-110490000D02*
X81280000Y-110490000D01*
D31*
X28102560Y-147157560D02*
X28102560Y-141132560D01*
X28102560Y-141132560D02*
X25400000Y-138430000D01*
X25400000Y-138430000D02*
X25400000Y-129540000D01*
X27940120Y-129540000D02*
X28102560Y-129377560D01*
X25400000Y-129540000D02*
X27940120Y-129540000D01*
M02*
