M48
; DRILL file {KiCad (5.1.6)-1} date 06/07/20 17:55:07
; FORMAT={-:-/ absolute / inch / decimal}
; #@! TF.CreationDate,2020-06-07T17:55:07+02:00
; #@! TF.GenerationSoftware,Kicad,Pcbnew,(5.1.6)-1
; #@! TF.FileFunction,Plated,1,2,PTH
FMAT,2
INCH
T1C0.0157
T2C0.0276
T3C0.0295
T4C0.0315
T5C0.0315
T6C0.0354
T7C0.0394
T8C0.0433
T9C0.0472
T10C0.0512
T11C0.0551
%
G90
G05
T1
X2.15Y-5.45
X2.65Y-4.45
X3.2Y-4.35
T2
X3.2616Y-3.9808
X3.5616Y-3.9808
X3.0116Y-5.1308
X3.3116Y-5.1308
T3
X2.8232Y-5.0822
X2.8232Y-5.1322
X2.8232Y-5.1822
T4
X2.2496Y-5.0383
X2.2496Y-5.2352
T5
X1.35Y-4.05
X1.35Y-4.35
X1.35Y-4.45
X1.35Y-4.55
X1.35Y-4.65
X1.45Y-4.05
X1.45Y-4.65
X1.55Y-4.05
X1.55Y-4.65
X1.6Y-4.55
X1.65Y-4.05
X1.65Y-4.65
X1.7Y-4.55
X1.75Y-4.05
X1.75Y-4.65
X1.85Y-4.05
X1.85Y-4.65
X1.95Y-4.05
X1.95Y-4.65
X2.0Y-4.55
X2.05Y-4.05
X2.05Y-4.65
X2.1Y-4.55
X2.15Y-4.05
X2.15Y-4.65
X2.25Y-4.05
X2.25Y-4.65
X2.35Y-4.05
X2.35Y-4.65
X2.45Y-4.05
X2.45Y-4.65
T6
X2.8Y-4.8
X2.85Y-4.8
X2.9Y-4.8
X2.95Y-4.8
T7
X3.7Y-4.0
X3.8Y-4.0
X3.9Y-4.0
X4.0Y-4.0
X4.1Y-4.0
X4.2Y-4.0
X4.3Y-4.0
X4.4Y-4.0
T8
X1.45Y-5.75
X1.45Y-5.85
X1.45Y-5.95
T9
X1.1064Y-5.0936
X1.1064Y-5.2314
X1.1064Y-5.7936
X1.1064Y-5.9314
T10
X1.4511Y-4.9334
X1.4511Y-5.4058
X1.9315Y-4.9334
X1.9315Y-5.4058
X2.0102Y-5.1696
T11
X2.4676Y-4.957
X2.4676Y-5.357
T0
M30
